<svg xmlns="http://www.w3.org/2000/svg" width="48" height="48" viewBox="0 0 48 48"><g transform="translate(0 -1004.362)"><circle cx="24" cy="1028.362" r="24" fill="#ef4c45" fill-rule="evenodd"/><path fill="#fff" d="m 21.009766,0 c -0.396567,0 -0.714844,0.32105 -0.714844,0.71875 l 0,5.25 0,1.6660156 1.916016,-0.9492187 5.958984,0 c 0.396567,0 0.714844,-0.3190969 0.714844,-0.7167969 l 0,-5.25 C 28.884766,0.32105 28.566489,0 28.169922,0 L 21.009766,0 Z M 21.25,0.96484375 l 6.679688,0 0,0.95507815 -6.679688,0 0,-0.95507815 z m 0,1.91015625 6.679688,0 0,0.953125 -6.679688,0 0,-0.953125 z m 0,1.9082031 3.816406,0 0,0.9550781 -3.816406,0 0,-0.9550781 z M 9.2304688,5.2460938 c -0.2214005,0.058 -0.3901895,0.2788124 -0.3886719,0.5078124 l 0,3.6386719 c 0,0.7184999 0.3780364,1.3547159 0.9550781,1.7285159 l 0,0.6875 0,2.08789 c 0.1158874,1.6538 0.752791,2.808932 1.640625,3.519532 -0.104071,0.8201 -0.457181,1.292615 -1.044922,1.728515 -0.6947421,0.5153 -1.7062076,0.917247 -2.7734374,1.373047 -1.0672298,0.4558 -2.2006091,1.00395 -3.0722656,1.96875 C 3.6752184,23.451228 3.1147477,24.8006 3.1152344,26.75 l 0,0.359375 0.2988281,0.119141 c 2.7317734,1.1855 4.1110972,1.79339 4.8007813,2.08789 0.3448466,0.1472 0.5003993,0.228778 0.5976562,0.267578 0.048676,0.019 0.067028,0.01525 0.1191406,0.03125 0.01298,0 0.032824,0.0243 0.058594,0.0293 l 0.03125,0 c 0.078264,0.032 0.2449145,0.101182 0.5664062,0.238281 0.6719502,0.2866 2.0070772,0.853544 4.7128902,2.027344 l 0.207031,0.0918 0.208985,-0.0918 c 2.753324,-1.1694 4.129691,-1.737843 4.832031,-2.027344 0.33704,-0.138899 0.509991,-0.234278 0.597656,-0.267578 0.01527,-6e-4 0.0166,0 0.0293,0 0.05135,-0.01 0.09849,-0.02425 0.119141,-0.03125 0.04133,-0.013 0.0425,-0.0103 0.08984,-0.0293 0.09487,-0.039 0.287264,-0.123132 0.625,-0.269532 0.675463,-0.2929 2.023198,-0.88454 4.71289,-2.05664 l 0.298828,-0.119141 0,-0.359375 c 0,-1.9031 -0.565901,-3.240528 -1.43164,-4.173828 -0.865739,-0.9331 -1.989226,-1.435458 -3.042969,-1.88086 -1.053744,-0.445299 -2.058895,-0.841693 -2.744141,-1.371093 -0.672629,-0.5195 -1.058245,-1.119078 -1.072265,-2.267578 0.926775,-0.7663 1.569089,-1.843057 1.609375,-3.160157 l 0,-2.08789 0,-0.835938 0,-1.7304685 c 1.43e-4,-1.6657 -1.262045,-3.0410156 -2.863282,-3.0410156 l -1.371093,0 -4.355469,0 c -0.327399,0 -0.596103,-0.052841 -0.714844,-0.1191407 -0.1187403,-0.066 -0.1503902,-0.076025 -0.1503902,-0.328125 0.00286,-0.3197 -0.3455755,-0.5908124 -0.6542968,-0.5078124 z M 14.568359,19.167969 c 0.772173,0 1.398496,0.624284 1.398438,1.396484 -8.74e-4,0.3817 -0.157276,0.764438 -0.423828,1.023438 0,0 -0.346679,0.168962 -0.197266,0.726562 l 1.130859,6.330078 -1.908203,0.953125 -1.871093,-0.964844 1.15039,-6.318359 c 0.149671,-0.4617 -0.180495,-0.699562 -0.203125,-0.726562 -0.296935,-0.2614 -0.474076,-0.616838 -0.474609,-1.023438 -5.8e-5,-0.7722 0.626264,-1.396484 1.398437,-1.396484 z" color="#000" font-family="Sans" font-weight="400" overflow="visible" transform="translate(9.115 1012.361)" style="line-height:normal;-inkscape-font-specification:Sans;text-indent:0;text-align:start;text-decoration-line:none;text-transform:none;block-progression:tb;marker:none"/></g></svg>