<svg xmlns="http://www.w3.org/2000/svg" width="48" height="48" viewBox="0 0 48 48"><g fill="#fff" transform="translate(8 -1013.362)"><circle cx="16" cy="1037.362" r="24" fill="#424242"/><path d="M 13.75,5 C 12.231833,5 11,6.2522969 11,7.7792969 L 11,8 10,8 6,8 4,8 C 2.3466406,8 1,9.3467 1,11 l 0,3 0,3 0,7 0,1.5 c 0,0.4167 0.192917,0.775016 0.4589844,1.041016 C 1.7250518,26.807116 2.0833333,27 2.5,27 l 27,0 c 0.416667,0 0.774948,-0.192884 1.041016,-0.458984 C 30.807083,26.275016 31,25.9167 31,25.5 l 0,-1.5 0,-7 0,-3 0,-3 C 31,9.3467 29.653359,8 28,8 L 26,8 22,8 21,8 21,7.7792969 C 21,6.2522969 19.768167,5 18.25,5 l -4.5,0 z m 0,1 4.5,0 C 19.224833,6 20,6.7824969 20,7.7792969 L 20,8 12,8 12,7.7792969 C 12,6.7824969 12.775167,6 13.75,6 Z M 4,9 6,9 6,15 A 0.50005,0.50005 0 0 0 5.5,15.5 L 5.5,16 4,16 C 2.8833394,16 2,15.1167 2,14 L 2,11 C 2,9.8834 2.8833394,9 4,9 Z m 3,0 2,0 0,6 -2,0 0,-6 z m 3,0 12,0 0,6 a 0.50005,0.50005 0 0 0 -0.5,0.5 l 0,0.5 -5.5,0 -5.5,0 0,-0.5 A 0.50005,0.50005 0 0 0 10,15 l 0,-6 z m 13,0 2,0 0,6 -2,0 0,-6 z m 3,0 2,0 c 1.116661,0 2,0.8834 2,2 l 0,3 c 0,1.1167 -0.883339,2 -2,2 l -1.5,0 0,-0.5 A 0.50005,0.50005 0 0 0 26,15 l 0,-6 z m -19.5,7 3,0 0,2 -1,0 0,-1 -1,0 0,1 -1,0 0,-2 z m 16,0 3,0 0,2 -1,0 0,-1 -1,0 0,1 -1,0 0,-2 z M 2,16.21875 C 2.5321322,16.698885 3.2290719,17 4,17 l 1.5,0 0,1.5 A 0.50005,0.50005 0 0 0 6,19 l 0,3 0,4 -3.5,0 C 2.416667,26 2.2749482,25.942984 2.1660156,25.833984 2.057083,25.725084 2,25.5834 2,25.5 L 2,24 2,17 2,16.21875 Z m 28,0 0,0.78125 0,7 0,1.5 c 0,0.083 -0.05708,0.225084 -0.166016,0.333984 C 29.725052,25.942884 29.583333,26 29.5,26 l -3.5,0 0,-4 0,-3 a 0.50005,0.50005 0 0 0 0.5,-0.5 l 0,-1.5 1.5,0 c 0.770928,0 1.467868,-0.301115 2,-0.78125 z M 10.5,17 l 5.5,0 5.5,0 0,1.5 A 0.50005,0.50005 0 0 0 22,19 l 0,3 0,4 -12,0 0,-4 0,-3 a 0.50005,0.50005 0 0 0 0.5,-0.5 l 0,-1.5 z m -3.5,2 2,0 0,3 0,4 -2,0 0,-4 0,-3 z m 16,0 2,0 0,3 0,4 -2,0 0,-4 0,-3 z" color="#000" font-family="sans-serif" font-weight="400" overflow="visible" transform="translate(0 1020.362)" white-space="normal" style="line-height:normal;text-indent:0;text-align:start;text-decoration-line:none;text-decoration-style:solid;text-decoration-color:#000;text-transform:none;block-progression:tb;isolation:auto;mix-blend-mode:normal"/></g></svg>