<svg xmlns="http://www.w3.org/2000/svg" width="48" height="48" viewBox="0 0 48 48"><g transform="translate(0 -1004.362)"><circle cx="24" cy="1028.362" r="24" fill="#3a6c87"/><path fill="#fff" fill-rule="evenodd" d="M 7.4921875,5 A 0.50004997,0.50004997 0 0 0 7,5.5078125 l 0,3.5410156 -2.4589844,0 C 3.6973301,9.0488281 3,9.7403844 3,10.583984 l 0,13.423828 -1.5,0 a 0.50005006,0.50005006 0 0 0 -0.5,0.5 c 0,1.925501 1.5393206,3.5 3.4433594,3.5 l 23.1132816,0 c 1.904039,0 3.443359,-1.574499 3.443359,-3.5 a 0.50005006,0.50005006 0 0 0 -0.5,-0.5 l -1.5,0 0,-13.423828 C 29,9.7403844 28.302702,9.0488281 27.458984,9.0488281 l -3.458984,0 0,-3.5410156 a 0.50005,0.50005 0 0 0 -0.5,-0.5 l -2,0 a 0.50005,0.50005 0 0 0 -0.5,0.5 l 0,3.5410156 -5,0 0,-1.5410156 a 0.50005,0.50005 0 0 0 -0.5,-0.5 l -2,0 a 0.50005,0.50005 0 0 0 -0.5,0.5 l 0,1.5410156 -2.728516,0 -2.271484,0 0,-3.5410156 A 0.50004997,0.50004997 0 0 0 7.4921875,5 Z M 22,6.0078125 l 1,0 0,11.9863285 -1,0 0,-11.9863285 z m -8,2 1,0 0,9.9863285 -1,0 0,-9.9863285 z m -9.4589844,2.0410155 2.4589844,0 0,0.958984 -1.5,0 a 0.50004997,0.50004997 0 0 0 -0.5,0.5 l 0,11 a 0.50004997,0.50004997 0 0 0 0.5,0.5 l 5.25,0 10.814453,0 3.009766,0 1.925781,0 a 0.50004997,0.50004997 0 0 0 0.5,-0.5 l 0,-11 a 0.50004997,0.50004997 0 0 0 -0.5,-0.5 l -2.5,0 0,-0.958984 3.458984,0 C 27.769455,10.048828 28,10.280384 28,10.583984 l 0,13.423828 -24,0 0,-13.423828 c 0,-0.3036 0.2306311,-0.535156 0.5410156,-0.535156 z m 3.4589844,0 2.271484,0 2.728516,0 0,0.958984 -5,0 0,-0.958984 z m 8,0 5,0 0,0.958984 -5,0 0,-0.958984 z m -10,1.958984 1,0 0,6.5 a 0.50004997,0.50004997 0 0 0 0.5,0.5 l 17,0 a 0.50004997,0.50004997 0 1 0 0,-1 l -0.5,0 0,-6 2,0 0,10 -1.425781,0 -3.009766,0 -10.814453,0 -4.75,0 0,-10 z m 2,0 5,0 0,6 -1,0 0,-3.513671 a 0.50005,0.50005 0 0 0 -0.5,-0.5 l -2,0 a 0.50005,0.50005 0 0 0 -0.5,0.5 l 0,3.513671 -1,0 0,-6 z m 8,0 5,0 0,6 -1,0 0,-4.5 a 0.50004997,0.50004997 0 0 0 -0.5,-0.5 l -2,0 a 0.50004997,0.50004997 0 0 0 -0.5,0.5 l 0,4.5 -1,0 0,-6 z m 2,2 1,0 0,3.986329 -1,0 0,-3.986329 z m -8,0.986329 1,0 0,3 -1,0 0,-3 z m -7.7988281,10.013671 10.6347661,0 0,0.279297 c 0,0.6938 0.565385,1.279297 1.261718,1.279297 l 3.804688,0 c 0.696333,0 1.261719,-0.585397 1.261718,-1.279297 l 0,-0.279297 10.634766,0 c -0.248985,1.1162 -1.076268,2 -2.242187,2 l -23.1132816,0 c -1.1659196,0 -1.9932021,-0.8838 -2.2421875,-2 z m 11.6347661,0 4.328124,0 0,0.279297 c 0,0.1698 -0.11493,0.279297 -0.261718,0.279297 l -3.804688,0 c -0.146788,0 -0.26172,-0.109397 -0.261718,-0.279297 l 0,-0.279297 z" color="#000" font-family="sans-serif" font-weight="400" overflow="visible" transform="translate(8 1010.354)" white-space="normal" style="line-height:normal;text-indent:0;text-align:start;text-decoration-line:none;text-decoration-style:solid;text-decoration-color:#000;text-transform:none;block-progression:tb;isolation:auto;mix-blend-mode:normal"/></g></svg>