<svg xmlns="http://www.w3.org/2000/svg" width="48" height="48" viewBox="0 0 48 48"><g transform="translate(0 -1004.362)"><circle cx="24" cy="1028.362" r="24" fill="#1d67b1"/><path fill="#fff" d="m 18.274299,1020.3661 c -3.545912,-0.091 -7.033701,1.7111 -8.929687,4.9961 -2.2621626,3.9194 -1.5596504,8.7407 1.40039,11.8711 l -1.61914,2.8066 a 0.50005006,0.50005006 0 0 0 0.1835937,0.6836 l 0.203125,0.1172 -1.0136718,1.7559 -0.9433594,1.6347 -0.8007812,1.3887 -0.6796876,1.1758 -1.3046874,2.2617 c -0.6062767,1.0504 -0.2416358,2.405 0.8085937,3.0117 1.0502585,0.6065 2.4034748,0.2439 3.0097656,-0.8066 l 4.7421874,-8.2168 0.205078,0.1172 a 0.50005006,0.50005006 0 0 0 0.683594,-0.1817 l 1.644531,-2.8515 c 4.138721,0.9049 8.567358,-0.9048 10.796875,-4.7676 2.757799,-4.7782 1.118561,-10.9033 -3.658203,-13.6621 -1.492735,-0.8621 -3.116738,-1.2927 -4.728516,-1.334 z m -0.03125,0.9941 c 1.450119,0.038 2.913305,0.4295 4.259766,1.2071 4.308688,2.4884 5.780655,7.9847 3.292968,12.2949 -2.487683,4.3101 -7.982333,5.7833 -12.291015,3.2949 -4.308669,-2.4884 -5.7806461,-7.9848 -3.292969,-12.2949 1.710282,-2.9633 4.840988,-4.586 8.03125,-4.502 z m -0.02344,1.004 c -2.836728,-0.072 -5.626163,1.3707 -7.142579,3.998 -2.2056897,3.8216 -0.894701,8.7233 2.925782,10.9297 3.820482,2.2065 8.722044,0.8919 10.927734,-2.9297 2.205695,-3.8215 0.892748,-8.7233 -2.927734,-10.9297 -1.193901,-0.6895 -2.493782,-1.0355 -3.783203,-1.0683 z m -0.0293,0.996 c 1.127762,0.03 2.26487,0.3345 3.3125,0.9395 3.352415,1.9362 4.498084,6.2089 2.5625,9.5625 -1.935579,3.3536 -6.210085,4.5007 -9.5625,2.5645 -3.352416,-1.9361 -4.496126,-6.211 -2.560547,-9.5645 1.330714,-2.3056 3.76697,-3.5676 6.248047,-3.502 z m -6.699219,14.5821 c 0.4635,0.3979 0.965717,0.7636 1.513672,1.0801 0.601964,0.3476 1.226057,0.6255 1.861328,0.8359 l -1.263672,2.1894 -3.361328,-1.9414 1.25,-2.164 z m -1.113281,3.3984 2.08789,1.2051 -4.7421867,8.2168 c -0.3380571,0.5857 -1.0591308,0.7795 -1.6445313,0.4414 -0.5854277,-0.3381 -0.7794039,-1.0609 -0.4414063,-1.6465 l 1.3046876,-2.2617 0.6796874,-1.1758 0.8007813,-1.3887 0.9433594,-1.6347 1.0117186,-1.7559 z" color="#000" font-family="sans-serif" font-weight="400" overflow="visible" transform="translate(7.761 -7)" white-space="normal" style="line-height:normal;text-indent:0;text-align:start;text-decoration-line:none;text-decoration-style:solid;text-decoration-color:#000;text-transform:none;block-progression:tb;isolation:auto;mix-blend-mode:normal"/></g></svg>