<svg xmlns="http://www.w3.org/2000/svg" width="48" height="48" viewBox="0 0 48 48"><g transform="translate(0 -1004.362)"><circle cx="24" cy="1028.362" r="24" fill="#50b748"/><path fill="#fff" d="M 1.5,1 A 0.50004997,0.50004997 0 0 0 1,1.5 l 0,25 A 0.50004997,0.50004997 0 0 0 1.5,27 l 16.185547,0 c 1.126409,2.36032 3.52934,4 6.314453,4 3.860071,0 7,-3.1399 7,-7 0,-3.16507 -2.111799,-5.844284 -5,-6.707031 L 26,5.5996094 A 0.50005,0.50005 0 0 0 26,5.3925781 L 26,1.5 A 0.50004997,0.50004997 0 0 0 25.5,1 L 1.5,1 Z M 2,2 25,2 25,5 2,5 2,2 Z M 19.5,3 A 0.5,0.5 0 0 0 19,3.5 0.5,0.5 0 0 0 19.5,4 0.5,0.5 0 0 0 20,3.5 0.5,0.5 0 0 0 19.5,3 Z m 2,0 A 0.5,0.5 0 0 0 21,3.5 0.5,0.5 0 0 0 21.5,4 0.5,0.5 0 0 0 22,3.5 0.5,0.5 0 0 0 21.5,3 Z m 2,0 A 0.5,0.5 0 0 0 23,3.5 0.5,0.5 0 0 0 23.5,4 0.5,0.5 0 0 0 24,3.5 0.5,0.5 0 0 0 23.5,3 Z M 2,6 25,6 25,17.078125 C 24.672411,17.030933 24.340454,17 24,17 l 0,-3.744141 A 0.50005,0.50005 0 0 0 23.882812,12.935547 L 22.65625,11.476562 a 0.50005,0.50005 0 0 0 -0.02734,-0.03125 c -0.315236,-0.3166 -0.715199,-0.474825 -1.082031,-0.453124 l 0,0.0039 c -0.366832,0.022 -0.671091,0.197369 -0.888672,0.417968 a 0.50005,0.50005 0 0 0 -0.01758,0.01758 0.50005,0.50005 0 0 0 -0.01563,0.01758 L 18.929688,13.347656 15.53125,9.5410156 A 0.50005,0.50005 0 0 0 15.51367,9.5214846 C 15.179204,9.1841846 14.729967,9.0579689 14.355467,9.105469 l 0,-0.00195 c -0.254673,0.032 -0.42477,0.1789875 -0.609375,0.3046875 a 0.50005,0.50005 0 0 0 -0.28711,0.1425781 0.50005,0.50005 0 0 0 -0.01758,0.017578 0.50005,0.50005 0 0 0 -0.01563,0.017578 L 5.3515625,18.630859 a 0.50005,0.50005 0 0 0 -0.125,0.363282 C 5.1356648,19.193641 5,19.382891 5,19.587891 c 0,0.7696 0.6326634,1.402343 1.4003906,1.402343 l 0.054687,0 6.6855474,0 a 0.50005,0.50005 0 0 0 0.07617,0.0059 c 1.53967,0 2.972545,0.0058 4.464844,0.0078 C 17.248552,21.913487 17,22.927256 17,24 c 0,0.695678 0.105115,1.36527 0.294922,2 L 2,26 2,6 Z M 5.2714844,7 C 4.0220638,7 3,8.0266437 3,9.2773438 c 0,1.2507002 1.0208723,2.2792972 2.2714844,2.2792972 1.2493119,0 2.2675781,-1.029197 2.2675781,-2.2792972 C 7.5390625,8.0266437 6.5183021,7 5.2714844,7 Z m 0,1 c 0.7043823,0 1.2675781,0.5644438 1.2675781,1.2773438 0,0.7135 -0.56209,1.2792972 -1.2675781,1.2792972 C 4.5636964,10.556641 4,9.9902437 4,9.2773438 4,8.5644438 4.562505,8 5.2714844,8 Z m 9.2109376,2.097656 c 0.105658,-0.013 0.184401,-0.01005 0.318359,0.126953 l 3.457031,3.875 -5.259765,5.890625 -6.5429689,0 -0.054687,0 C 6.1781179,19.990234 6,19.816391 6,19.587891 c 0,-0.1664 0.021804,-0.211032 0.080078,-0.269532 a 0.50005,0.50005 0 0 0 0.017578,-0.01953 0.50005,0.50005 0 0 0 0.015625,-0.01758 l 8.058594,-9.027344 0.002,0 c 0.0724,-0.071 0.203714,-0.14295 0.308594,-0.15625 z m 7.123047,1.892578 c 0.07111,0 0.15735,0.01 0.308593,0.158204 L 23,13.439453 l 0,3.638672 c -1.958611,0.282154 -3.657608,1.372836 -4.742188,2.927734 -1.329188,-5.87e-4 -2.611855,-0.0098 -3.927734,-0.0098 l 6.908203,-7.736328 -0.224609,0 a 0.50005,0.50005 0 0 0 0.357422,-0.148438 c 0.07402,-0.075 0.162007,-0.116794 0.234375,-0.121094 z M 24,18 c 3.319631,0 6,2.6804 6,6 0,3.3197 -2.680369,6 -6,6 -3.319631,0 -6,-2.6803 -6,-6 0,-3.3196 2.680369,-6 6,-6 z m 1.736328,1 0,0.002 a 0.50004997,0.50004997 0 0 0 -0.417969,0.240235 l -0.679687,1.123046 a 0.50004997,0.50004997 0 0 0 -0.04883,0.02734 l -4.359375,2.873047 a 0.50004997,0.50004997 0 0 0 -0.22461,0.416016 l -0.01172,3.816406 a 0.50004997,0.50004997 0 0 0 0.5,0.501953 l 3.783203,0 a 0.50004997,0.50004997 0 0 0 0.417968,-0.224609 l 2.898438,-4.398438 a 0.50004997,0.50004997 0 0 0 0.02734,-0.04687 l 1.132812,-0.673828 a 0.50004997,0.50004997 0 0 0 0.0957,-0.785156 L 26.097656,19.144531 A 0.50004997,0.50004997 0 0 0 25.736328,19 Z m 0.107422,1.302734 1.84375,1.826172 -0.488281,0.289063 -1.648438,-1.63086 0.292969,-0.484375 z m -1.044922,1.148438 0.002,0 1.732422,1.716797 L 24.007812,27 l -2.36914,0 1.154297,-1.142578 c 0.461243,0.179337 1.011358,0.08677 1.380859,-0.279297 0.496023,-0.4914 0.496016,-1.303522 0,-1.794922 -0.496015,-0.4914 -1.316478,-0.4914 -1.8125,0 -0.370465,0.367007 -0.464154,0.913436 -0.28125,1.371094 l -1.082031,1.072265 0.0059,-2.273437 3.794922,-2.501953 z m -1.53125,2.953125 c 0.0698,0 0.139279,0.02843 0.195313,0.08398 0.112074,0.111 0.112081,0.275619 0,0.386719 -0.112074,0.111 -0.278551,0.111 -0.390625,0 -0.112081,-0.1111 -0.112074,-0.275719 0,-0.386719 0.05604,-0.05555 0.125511,-0.08398 0.195312,-0.08398 z" color="#000" font-family="sans-serif" font-weight="400" overflow="visible" transform="translate(10 1014.362)" white-space="normal" style="line-height:normal;text-indent:0;text-align:start;text-decoration-line:none;text-decoration-style:solid;text-decoration-color:#000;text-transform:none;block-progression:tb;isolation:auto;mix-blend-mode:normal"/></g></svg>