<?xml version="1.0" standalone="no"?>
<svg viewBox="0 0 200 200" xmlns="http://www.w3.org/2000/svg">
  <path fill="#000080" d="M45.9,-58.4C59.2,-53.5,69.6,-39.7,68.7,-26.2C67.9,-12.6,55.9,0.8,48.8,13.8C41.7,26.7,39.7,39.2,32.3,44.9C25,50.6,12.5,49.6,1.3,47.7C-9.9,45.9,-19.8,43.3,-33.5,39.7C-47.2,36.1,-64.8,31.4,-74.5,19.9C-84.1,8.4,-85.8,-10,-79.7,-24.9C-73.5,-39.8,-59.5,-51.2,-44.9,-55.7C-30.3,-60.1,-15.2,-57.7,0.6,-58.5C16.3,-59.2,32.6,-63.2,45.9,-58.4Z" transform="translate(100 100)" />
</svg>
