<svg xmlns="http://www.w3.org/2000/svg" width="48" height="48" viewBox="0 0 48 48"><g transform="translate(-150.776 -15.132)"><circle cx="174.776" cy="39.132" r="24" fill="#ffa40b" fill-rule="evenodd"/><path fill="#fff" d="m 15.691406,0 a 2.7692394,2.7692394 0 0 0 -2.767578,2.7695312 2.7692394,2.7692394 0 0 0 0.0039,0.1152344 l -6.6562496,3.84375 A 2.7692394,2.7692394 0 0 0 4,5.5390625 2.7692394,2.7692394 0 0 0 1.2304688,8.3085938 2.7692394,2.7692394 0 0 0 3.484375,11.027344 l 0,8.099609 A 2.7692394,2.7692394 0 0 0 1.2304688,21.845703 2.7692394,2.7692394 0 0 0 4,24.615234 2.7692394,2.7692394 0 0 0 5.6777344,24.044922 l 6.9042966,3.988281 A 2.7692394,2.7692394 0 0 0 12.308594,29.230469 2.7692394,2.7692394 0 0 0 15.076172,32 a 2.7692394,2.7692394 0 0 0 2.769531,-2.769531 2.7692394,2.7692394 0 0 0 -0.01758,-0.298828 l 8.480469,-4.896485 A 2.7692394,2.7692394 0 0 0 28,24.615234 2.7692394,2.7692394 0 0 0 30.769531,21.845703 2.7692394,2.7692394 0 0 0 28.482422,19.121094 l 0,-8.085938 A 2.7692394,2.7692394 0 0 0 30.769531,8.3085938 2.7692394,2.7692394 0 0 0 28,5.5390625 2.7692394,2.7692394 0 0 0 25.716797,6.7402344 L 18.451172,2.5449219 A 2.7692394,2.7692394 0 0 0 15.691406,0 Z m 2.632813,3.625 6.986328,4.0351562 a 2.7692394,2.7692394 0 0 0 -0.08008,0.6484376 2.7692394,2.7692394 0 0 0 2.253906,2.7187502 l 0,8.099609 a 2.7692394,2.7692394 0 0 0 -2.253906,2.71875 2.7692394,2.7692394 0 0 0 0.398437,1.425781 l -8.097656,4.677735 A 2.7692394,2.7692394 0 0 0 15.07617,26.460938 2.7692394,2.7692394 0 0 0 13.173826,27.220703 L 6.3613281,23.285156 A 2.7692394,2.7692394 0 0 0 6.7695312,21.845703 2.7692394,2.7692394 0 0 0 4.4824219,19.121094 l 0,-8.085938 A 2.7692394,2.7692394 0 0 0 6.7695312,8.3085938 2.7692394,2.7692394 0 0 0 6.6855469,7.6445312 L 13.167969,3.9003906 A 2.7692394,2.7692394 0 0 0 15.691406,5.5390625 2.7692394,2.7692394 0 0 0 18.324219,3.625 Z m -5.796875,3.765625 c -0.04913,-0.012033 -0.100628,-0.011447 -0.150391,0.00195 -0.14275,0.037 -0.250979,0.1784719 -0.25,0.3261719 l 0,2.3457031 c 0,0.4633 0.245133,0.874134 0.617188,1.115235 l 0,0.443359 0,1.345703 c 0.07472,1.0663 0.484198,1.811431 1.05664,2.269531 -0.0671,0.5288 -0.294874,0.834235 -0.673828,1.115235 -0.447944,0.3323 -1.098999,0.590865 -1.787109,0.884765 -0.688111,0.2939 -1.4184571,0.647432 -1.980469,1.269531 -0.562012,0.622101 -0.924142,1.4931 -0.9238281,2.75 l 0,0.230469 0.1914062,0.07617 c 4.7307659,2.7313 9.1056799,3.0479 14.3847659,0 l 0.193359,-0.07617 0,-0.230469 c 0,-1.227 -0.365632,-2.091659 -0.923828,-2.693359 -0.558197,-0.6017 -1.281523,-0.923737 -1.960938,-1.210937 -0.679414,-0.2871 -1.32771,-0.543466 -1.769531,-0.884766 -0.433686,-0.335 -0.682366,-0.720437 -0.691406,-1.460938 0.59755,-0.494099 1.011133,-1.189862 1.037109,-2.039062 l 0,-1.345703 0,-0.539063 0,-1.1152341 c 9.2e-5,-1.074 -0.813285,-1.9609375 -1.845703,-1.9609375 l -0.884765,0 -2.806641,0 c -0.211095,0 -0.386331,-0.035125 -0.462891,-0.078125 -0.07656,-0.042 -0.0957,-0.048438 -0.0957,-0.2109375 0.0013,-0.154575 -0.126033,-0.2920266 -0.273437,-0.328125 z m 3.292968,8.976563 c 0.497869,0 0.900429,0.404443 0.900391,0.902343 -5.63e-4,0.2461 -0.101574,0.493157 -0.273437,0.660157 0,0 -0.223294,0.107296 -0.126954,0.466796 l 0.730469,4.082032 -1.230469,0.615234 -1.207031,-0.623047 0.742188,-4.074219 c 0.0965,-0.2976 -0.11627,-0.449796 -0.13086,-0.466796 -0.191453,-0.1685 -0.306296,-0.397957 -0.30664,-0.660157 -3.8e-5,-0.4979 0.404476,-0.902343 0.902343,-0.902343 z" color="#000" font-family="sans-serif" font-weight="400" overflow="visible" transform="translate(158.776 23.132)" white-space="normal" style="line-height:normal;text-indent:0;text-align:start;text-decoration-line:none;text-decoration-style:solid;text-decoration-color:#000;text-transform:none;block-progression:tb;isolation:auto;mix-blend-mode:normal"/></g></svg>