<svg xmlns="http://www.w3.org/2000/svg" width="48" height="48" viewBox="0 0 48 48"><g transform="translate(0 -1004.362)"><circle cx="24" cy="1028.362" r="24" fill="#424242" fill-rule="evenodd"/><path fill="#fff" d="m 11.738281,0.39257812 c -0.176739,0.046 -0.311759,0.22335 -0.310547,0.40625 l 0,2.90429688 c 0,0.5736 0.303032,1.0823594 0.763672,1.3808594 l 0,0.546875 0,1.6660156 c 0.09251,1.3203 0.599855,2.2432467 1.308594,2.810547 -0.08308,0.6547 -0.364803,1.032859 -0.833984,1.380859 -0.554598,0.4114 -1.360944,0.731903 -2.212891,1.095703 C 9.6011785,12.947884 8.6958247,13.384097 8,14.154297 c -0.6958248,0.7702 -1.1429666,1.85005 -1.1425781,3.40625 l 0,0.285156 0.2382812,0.0957 6.5976559,0 0.748047,-4.101562 c -0.278222,-0.3552 -0.556015,-0.739997 -0.55664,-1.216797 -8.7e-5,-1.1569 0.958491,-2.117188 2.115234,-2.117188 l 0,0.002 c 1.156743,0 2.115323,0.960288 2.115234,2.117188 -0.001,0.4588 -0.239554,0.85085 -0.509765,1.21875 l 0.732422,4.097656 6.566406,0 0.238281,-0.0957 0,-0.285156 c 0,-1.5192 -0.451477,-2.588985 -1.142578,-3.333985 -0.691101,-0.744899 -1.586553,-1.1445 -2.427734,-1.5 -0.841181,-0.355499 -1.64439,-0.673203 -2.191407,-1.095703 -0.536945,-0.4148 -0.846228,-0.891693 -0.857421,-1.8085934 0.739824,-0.6117 1.252996,-1.4738906 1.285156,-2.5253906 l 0,-1.6660156 0,-0.6660156 0,-1.3808594 c 1.14e-4,-1.3297 -1.006924,-2.4296875 -2.285156,-2.4296875 l -1.095704,0 -3.474609,0 c -0.261356,0 -0.477478,-0.04175 -0.572266,-0.09375 -0.09479,-0.053 -0.11914,-0.0609188 -0.11914,-0.26171878 0.0023,-0.2553 -0.276992,-0.47254997 -0.523438,-0.40625 z M 16,11.505859 c -0.616409,0 -1.11528,0.498735 -1.115234,1.115235 4.26e-4,0.3246 0.139916,0.609659 0.376953,0.818359 0.01807,0.021 0.283541,0.211578 0.164062,0.580078 L 14.505859,19.0625 16,19.833984 17.523438,19.070312 16.621094,14.019531 c -0.119273,-0.4451 0.15625,-0.580078 0.15625,-0.580078 0.212783,-0.2067 0.337193,-0.513659 0.33789,-0.818359 4.7e-5,-0.6165 -0.498825,-1.115235 -1.115234,-1.115235 z m -1.488281,2.484375 c 0.0053,0.03231 -0.0026,0.06588 0.0098,0.08789 0.02474,0.045 0.04718,0.07184 0.06445,0.08984 0.0011,0.01 0.0029,0.0098 0.0039,0.0098 -9.8e-4,-10e-4 0.01222,0.01242 0.01172,0.01172 -0.05413,-0.04764 -0.04191,-0.144823 -0.08984,-0.199219 z m 3,0.08008 c -0.0023,0.0068 -0.0022,0.01424 -0.0078,0.02149 0.0019,-0.01 0.0041,-0.0098 0.0059,-0.0098 0.0028,-0.005 0.0018,-0.0087 0.002,-0.01172 z M 15.5,20.701172 l 0,0.894531 -9.8339844,0 c -0.6678717,0 -1.2128906,0.559209 -1.2128906,1.224609 l 0,2.730469 1,0 0,-2.730469 c 0,-0.137899 0.091019,-0.224609 0.2128906,-0.224609 l 9.8339844,0 0,2.929688 1,0 0,-2.929688 9.833984,0 c 0.121873,0 0.212891,0.08701 0.212891,0.224609 l 0,2.728516 1,0 0,-2.728516 c 0,-0.6654 -0.545019,-1.224609 -1.212891,-1.224609 l -9.833984,0 0,-0.894531 -0.507812,0.253906 L 15.5,20.701172 Z M 0.82617188,26.285156 C 0.36889408,26.285156 0,26.624775 0,27.046875 l 0,3.810547 c 0,0.4221 0.36889407,0.761719 0.82617188,0.761719 l 8.25390622,0 c 0.4572778,0 0.8242188,-0.339619 0.8242188,-0.761719 l 0,-3.810547 c 0,-0.4221 -0.366941,-0.761719 -0.8242188,-0.761719 l -8.25390622,0 z m 11.36523412,0 c -0.422103,0 -0.763672,0.339619 -0.763672,0.761719 l 0,3.810547 c 0,0.4221 0.341569,0.761719 0.763672,0.761719 l 7.617188,0 c 0.422103,0 0.763672,-0.339619 0.763672,-0.761719 l 0,-3.810547 c 0,-0.4221 -0.341569,-0.761719 -0.763672,-0.761719 l -7.617188,0 z m 10.728516,0 c -0.457278,0 -0.824219,0.339619 -0.824219,0.761719 l 0,3.810547 c 0,0.4221 0.366941,0.761719 0.824219,0.761719 l 8.253906,0 C 31.631105,31.619141 32,31.279522 32,30.857422 l 0,-3.810547 c 0,-0.4221 -0.368895,-0.761719 -0.826172,-0.761719 l -8.253906,0 z" color="#000" font-family="sans-serif" font-weight="400" overflow="visible" transform="translate(8 1010.743)" white-space="normal" style="line-height:normal;text-indent:0;text-align:start;text-decoration-line:none;text-decoration-style:solid;text-decoration-color:#000;text-transform:none;block-progression:tb;isolation:auto;mix-blend-mode:normal"/></g></svg>