<svg xmlns="http://www.w3.org/2000/svg" width="48" height="48" viewBox="0 0 48 48"><g transform="translate(-92.585 -146.56)"><circle cx="116.585" cy="170.56" r="24" fill="#3a6c87"/><path fill="#fff" d="m 11.744141,4.8554688 c -0.06352,-0.015563 -0.129035,-0.015347 -0.19336,0.00195 -0.184523,0.048 -0.325483,0.230975 -0.324219,0.421875 l 0,3.0332031 c 0,0.5989 0.315945,1.1298063 0.796876,1.4414062 l 0,0.5722659 0,1.740234 c 0.09658,1.3784 0.627232,2.341294 1.367187,2.933594 -0.08674,0.6835 -0.381248,1.078206 -0.871094,1.441406 -0.579025,0.4295 -1.421077,0.762678 -2.310547,1.142578 -0.8894693,0.3799 -1.8340745,0.838378 -2.5605465,1.642578 -0.726472,0.804101 -1.1937651,1.929988 -1.1933594,3.554688 l 0,0.296875 0.2480469,0.09961 c 2.2767646,0.988 3.427144,1.494735 4.001953,1.740235 0.287409,0.1227 0.41699,0.190256 0.498047,0.222656 0.04057,0.016 0.05618,0.01239 0.09961,0.02539 0.01082,0 0.02735,0.02139 0.04883,0.02539 l 0.02539,0 c 0.06523,0.026 0.204712,0.08532 0.472656,0.199219 0.560029,0.2389 1.670654,0.711153 3.925782,1.689453 l 0.175781,0.07617 0.173828,-0.07617 c 2.294726,-0.9747 3.441987,-1.448153 4.027344,-1.689453 0.280901,-0.1157 0.423029,-0.196809 0.496094,-0.224609 0.01273,-5e-4 0.01481,0 0.02539,0 0.0428,-0.01 0.0824,-0.01939 0.09961,-0.02539 0.03444,-0.011 0.03476,-0.0084 0.07422,-0.02344 0.07907,-0.033 0.240003,-0.10251 0.521485,-0.22461 0.562957,-0.244 1.686041,-0.738044 3.927734,-1.714844 l 0.248047,-0.09961 0,-0.296875 c 0,-1.5861 -0.471819,-2.702669 -1.19336,-3.480469 -0.72154,-0.7778 -1.656926,-1.195306 -2.535156,-1.566406 -0.878231,-0.3712 -1.715999,-0.703331 -2.287109,-1.144531 -0.560594,-0.4331 -0.882846,-0.931472 -0.894531,-1.888672 0.77241,-0.6387 1.308219,-1.537066 1.341796,-2.634766 l 0,-1.740234 0,-0.6953127 0,-1.4414063 c 1.2e-4,-1.3883 -1.050234,-2.5371093 -2.384765,-2.5371093 l -1.144531,0 -3.628907,0 c -0.272867,0 -0.498692,-0.044609 -0.597656,-0.099609 -0.09896,-0.055 -0.123047,-0.064038 -0.123047,-0.2734375 0.0018,-0.1998 -0.16296,-0.3771406 -0.353515,-0.4238281 z M 3.6347656,7.2773438 C 3.5031836,7.3123438 3.403395,7.441925 3.4042969,7.578125 l 0,2.1640625 c 0,0.4271005 0.2234601,0.8051435 0.5664062,1.0273435 l 0,0.408203 0,1.240235 c 0.068874,0.9829 0.4469537,1.669397 0.9746094,2.091797 -0.061852,0.4874 -0.2717889,0.768243 -0.6210937,1.027343 -0.4128979,0.3062 -1.0141637,0.545507 -1.6484376,0.816407 -0.6342733,0.2709 -1.3061777,0.596522 -1.8242187,1.169922 C 0.33352149,18.096837 -2.8929114e-4,18.899994 0,20.058594 l 0,0.21289 0.17773438,0.07031 c 1.62354162,0.7046 2.44362412,1.065234 2.85351562,1.240234 0.2049486,0.088 0.2957141,0.137057 0.3535156,0.160157 0.028929,0.011 0.041295,0.0096 0.072266,0.01758 0.00771,0 0.019841,0.01458 0.035156,0.01758 l 0.017578,0 c 0.046514,0.019 0.1448692,0.06078 0.3359375,0.142578 0.2303271,0.09828 1.0420712,0.448956 1.6152344,0.695312 0.016127,-0.833293 0.1486154,-1.582858 0.3808594,-2.240234 l 0.5371093,-2.953125 c 0.088952,-0.2744 -0.1076447,-0.415641 -0.1210937,-0.431641 -0.1764738,-0.1553 -0.280933,-0.365821 -0.28125,-0.607422 -3.46e-5,-0.458999 0.371162,-0.832031 0.8300781,-0.832031 0.4589162,0 0.8301126,0.373031 0.8300782,0.832031 -5.197e-4,0.226801 -0.091584,0.453522 -0.25,0.607422 -10e-8,0 -0.2059865,0.100241 -0.1171876,0.431641 l 0.1210938,0.681641 c 0.7855845,-0.687696 1.663908,-1.112099 2.4257812,-1.4375 0.2926928,-0.125015 0.5421788,-0.236269 0.8027348,-0.351563 -0.49592,-0.209342 -0.9637413,-0.414087 -1.2949222,-0.669922 -0.3997552,-0.3088 -0.6303392,-0.664956 -0.6386719,-1.347656 0.550799,-0.4554 0.9330881,-1.096106 0.9570312,-1.878906 l 0,-1.240235 0,-0.496093 0,-1.0292972 C 9.6426632,8.6623434 8.8930493,7.8457031 7.9414062,7.8457031 l -0.8164062,0 -2.5878906,0 c -0.1945794,0 -0.3532581,-0.033266 -0.4238282,-0.072266 -0.07057,-0.039 -0.089844,-0.045413 -0.089844,-0.1953125 0.0017,-0.1901 -0.2051932,-0.3501812 -0.3886719,-0.3007812 z m 24.5937504,0 c -0.135881,0.033267 -0.253227,0.1582062 -0.251954,0.3007812 0,0.1499 -0.01927,0.1563125 -0.08984,0.1953125 -0.07057,0.039 -0.229248,0.072266 -0.423828,0.072266 l -2.587891,0 -0.816406,0 c -0.951643,0 -1.701257,0.8166406 -1.701172,1.8066407 l 0,1.0292968 0,0.496093 0,1.240235 c 0.02394,0.7828 0.406232,1.423506 0.957031,1.878906 -0.0083,0.6827 -0.238917,1.038856 -0.638672,1.347656 -0.36703,0.283528 -0.895285,0.504084 -1.453125,0.738281 0.305128,0.138799 0.623913,0.278161 0.982422,0.429688 0.736246,0.311121 1.605192,0.70194 2.390625,1.365234 l 0.134766,-0.755859 c 0.0888,-0.3314 -0.117188,-0.431641 -0.117188,-0.431641 -0.158417,-0.1539 -0.249481,-0.380621 -0.25,-0.607422 -3.5e-5,-0.459 0.371162,-0.832031 0.830078,-0.832031 0.458916,0 0.830113,0.373032 0.830079,0.832031 -3.17e-4,0.241601 -0.104777,0.452122 -0.28125,0.607422 -0.01345,0.016 -0.210047,0.157241 -0.121094,0.431641 l 0.55664,3.0625 c 0.218027,0.630404 0.345413,1.343073 0.361328,2.130859 0.573164,-0.246356 1.384908,-0.597034 1.615235,-0.695312 0.191069,-0.0818 0.289427,-0.123578 0.335937,-0.142578 l 0.01758,0 c 0.01531,-0.003 0.02746,-0.01758 0.03516,-0.01758 0.03097,-0.008 0.04333,-0.0066 0.07227,-0.01758 0.0578,-0.0231 0.148567,-0.07216 0.353516,-0.160157 0.409891,-0.175 1.229974,-0.535634 2.853516,-1.240234 L 32,20.271484 l 0,-0.21289 c 2.9e-4,-1.1586 -0.333521,-1.961757 -0.851562,-2.535156 -0.518042,-0.5734 -1.189945,-0.899022 -1.824219,-1.169922 -0.634273,-0.2709 -1.23554,-0.510207 -1.648438,-0.816407 -0.349305,-0.2591 -0.559245,-0.539943 -0.621093,-1.027343 0.527656,-0.4224 0.905739,-1.108897 0.974609,-2.091797 l 0,-1.240235 0,-0.408203 c 0.342946,-0.2222 0.566406,-0.600243 0.566406,-1.0273435 l 0,-2.1640625 c 9.02e-4,-0.1362 -0.09889,-0.2657812 -0.230469,-0.3007812 -0.04587,-0.01235 -0.09143,-0.011089 -0.136718,0 z M 16,16.458984 c 0.643558,0 1.166064,0.522416 1.166016,1.166016 -7.29e-4,0.3182 -0.131362,0.637616 -0.353516,0.853516 0,0 -0.28859,0.140768 -0.164062,0.605468 L 17.591797,24.357422 16,25.154297 14.439453,24.349609 15.400391,19.083984 c 0.124742,-0.3847 -0.151062,-0.583468 -0.169922,-0.605468 C 14.982992,18.260616 14.834429,17.9639 14.833984,17.625 14.833936,16.9814 15.356441,16.458984 16,16.458984 Z" color="#000" font-family="Sans" font-weight="400" overflow="visible" transform="translate(100.585 154.56)" style="line-height:normal;-inkscape-font-specification:Sans;text-indent:0;text-align:start;text-decoration-line:none;text-transform:none;block-progression:tb;marker:none"/></g></svg>