<svg xmlns="http://www.w3.org/2000/svg" width="48" height="48" viewBox="0 0 48 48"><g fill="#fff" transform="translate(8 -1013.362)"><circle cx="16" cy="1037.362" r="24" fill="#424242"/><path fill-rule="evenodd" d="m 25.484375,2 -0.371094,0.9296875 1.00586,0.4023437 c -0.948777,0.2850308 -4.116251,1.2489219 -7.796875,2.65625 -2.136984,0.8171 -4.277277,1.7281251 -5.910157,2.640625 -0.81644,0.4563001 -1.505262,0.9098532 -2.017578,1.3769528 C 9.8822158,10.472959 9.5,10.970831 9.5,11.582031 c 0,0.5833 0.3521771,1.066091 0.820312,1.462891 0.468136,0.3969 1.087328,0.743631 1.8125,1.082031 1.450348,0.6768 3.333985,1.302735 5.208985,1.927735 1.875,0.625 3.741362,1.249065 5.103515,1.884765 0.681077,0.3178 1.233761,0.642906 1.585938,0.941406 0.352177,0.2985 0.46875,0.534472 0.46875,0.701172 0,0.125 -0.155769,0.443972 -0.599609,0.826172 -0.443841,0.3822 -1.120777,0.810994 -1.945313,1.246094 -1.649072,0.8704 -3.886556,1.773631 -6.125,2.582031 -4.476887,1.6166 -8.9648436,2.863281 -8.9648436,2.863281 L 7.1347656,28.0625 c 0,0 4.5120434,-1.253319 9.0351564,-2.886719 2.261556,-0.8167 4.524072,-1.725818 6.25,-2.636719 0.862964,-0.4555 1.592278,-0.909499 2.132812,-1.375 C 25.093269,20.698562 25.5,20.207031 25.5,19.582031 c 0,-0.5834 -0.352177,-1.068044 -0.820312,-1.464843 -0.468137,-0.3968 -1.087327,-0.743632 -1.8125,-1.082032 -1.450348,-0.6768 -3.333985,-1.302734 -5.208985,-1.927734 -1.875,-0.625 -3.741363,-1.249066 -5.103515,-1.884766 C 11.87361,12.904756 11.320927,12.57975 10.96875,12.28125 10.616573,11.98275 10.5,11.748631 10.5,11.582031 c 0,-0.1389 0.149034,-0.455337 0.566406,-0.835937 0.417372,-0.3805 1.056675,-0.8097409 1.833985,-1.2441409 1.55462,-0.8688 3.664327,-1.770225 5.777343,-2.578125 3.929819,-1.5026375 7.55889,-2.5894522 8.091797,-2.7480469 L 26.228516,5.5292969 27.158203,5.9003906 28.271484,3.1152344 25.484375,2 Z M 10.5,3.0820312 l 0,1 -1,0 0,1 1,0 0,1 1,0 0,-1 1,0 0,-1 -1,0 0,-1 -1,0 z m -4,6.5 c -0.8225047,0 -1.4999928,0.6774998 -1.5,1.4999998 7.2e-6,0.8225 0.6774953,1.5 1.5,1.5 0.8225047,0 1.4999928,-0.6775 1.5,-1.5 -7.2e-6,-0.8225 -0.6774953,-1.4999998 -1.5,-1.4999998 z m 0,0.9999998 c 0.2820676,0 0.4999975,0.2179 0.5,0.5 -2.5e-6,0.282 -0.2179324,0.5 -0.5,0.5 -0.2820676,0 -0.4999975,-0.218 -0.5,-0.5 2.5e-6,-0.2821 0.2179324,-0.5 0.5,-0.5 z m 16.5,0.5 0,1 -1,0 0,1 1,0 0,1 1,0 0,-1 1,0 0,-1 -1,0 0,-1 -1,0 z m -14.5,7.5 0,1 -1,0 0,1 1,0 0,1 1,0 0,-1 1,0 0,-1 -1,0 0,-1 -1,0 z m 20,0 c -0.822505,0 -1.500007,0.6775 -1.5,1.5 -7e-6,0.8225 0.677495,1.5 1.5,1.5 0.822505,0 1.500007,-0.6775 1.5,-1.5 7e-6,-0.8225 -0.677495,-1.5 -1.5,-1.5 z m 0,1 c 0.282062,0 0.500002,0.2179 0.5,0.5 2e-6,0.282 -0.217938,0.5 -0.5,0.5 -0.282062,0 -0.500002,-0.218 -0.5,-0.5 -2e-6,-0.2821 0.217938,-0.5 0.5,-0.5 z m -25,5 c -0.8225048,0 -1.5,0.6775 -1.5,1.5 0,0.8225 0.6774952,1.5 1.5,1.5 0.8225048,0 1.5,-0.6775 1.5,-1.5 0,-0.8225 -0.6774952,-1.5 -1.5,-1.5 z m 0,1 c 0.2820647,0 0.5,0.2179 0.5,0.5 0,0.282 -0.2179353,0.5 -0.5,0.5 -0.2820647,0 -0.5,-0.218 -0.5,-0.5 0,-0.2821 0.2179353,-0.5 0.5,-0.5 z m 16,1 0,1 -1,0 0,1 1,0 0,1 1,0 0,-1 1,0 0,-1 -1,0 0,-1 -1,0 z" color="#000" font-family="sans-serif" font-weight="400" overflow="visible" transform="translate(0 1021.571)" white-space="normal" style="line-height:normal;text-indent:0;text-align:start;text-decoration-line:none;text-decoration-style:solid;text-decoration-color:#000;text-transform:none;block-progression:tb;isolation:auto;mix-blend-mode:normal"/></g></svg>